<?xml version="1.0" encoding="utf-8"?>
<!-- Generator: Adobe Illustrator 27.4.1, SVG Export Plug-In . SVG Version: 6.00 Build 0)  -->
<svg version="1.1" id="레이어_1" xmlns="http://www.w3.org/2000/svg" xmlns:xlink="http://www.w3.org/1999/xlink" x="0px"
	 y="0px" viewBox="0 0 900 300" style="enable-background:new 0 0 900 300;" xml:space="preserve">
<style type="text/css">
	.st0{fill:#464EFF;}
	.st1{fill:#FFFFFF;}
</style>
<path class="st0" d="M264.04,140.94L159.65,37.61c-4.89-4.84-13-3.92-16.68,1.89L33.81,211.9c-4.14,6.54-0.45,15.19,7.13,16.74
	l180.32,36.66c5.33,1.08,10.6-2.08,12.15-7.29l32.56-109.53C266.77,145.8,266.02,142.9,264.04,140.94z M235.68,142.51l-35.62,11.48
	l-23.77-70.36L235.68,142.51z M149.04,69.35l31.23,91.98L66.68,198.84L149.04,69.35z M83.65,215.66l103.31-34.56l20.32,59.91
	L83.65,215.66z M222.75,220.21l-17.02-46.46l33.84-10.41L222.75,220.21z"/>
<g>
	<path class="st1" d="M310.21,201.77V100.11h22.61v101.66H310.21z M371.7,201.77l-41.18-52.99l39.89-48.67h27.94l-44.93,52.85v-9.22
		l46.37,58.03H371.7z"/>
	<path class="st1" d="M420.8,122.14c-3.46,0-6.31-1.17-8.57-3.53c-2.26-2.35-3.38-5.21-3.38-8.57c0-3.46,1.13-6.34,3.38-8.64
		c2.25-2.3,5.11-3.46,8.57-3.46c3.46,0,6.29,1.15,8.5,3.46c2.21,2.3,3.31,5.18,3.31,8.64c0,3.36-1.1,6.22-3.31,8.57
		C427.09,120.97,424.26,122.14,420.8,122.14z M409.71,201.77v-69.98h22.03v69.98H409.71z"/>
	<path class="st1" d="M480.99,203.36c-7.2,0-13.71-1.61-19.51-4.82c-5.81-3.21-10.39-7.61-13.75-13.18
		c-3.36-5.57-5.04-11.81-5.04-18.72s1.68-13.1,5.04-18.58c3.36-5.47,7.92-9.81,13.68-13.03c5.76-3.22,12.29-4.82,19.58-4.82
		c7.29,0,13.82,1.58,19.58,4.75c5.76,3.17,10.32,7.51,13.68,13.03c3.36,5.52,5.04,11.74,5.04,18.65s-1.68,13.15-5.04,18.72
		c-3.36,5.57-7.92,9.96-13.68,13.18C494.81,201.75,488.29,203.36,480.99,203.36z M480.99,183.34c3.17,0,5.95-0.7,8.35-2.09
		c2.4-1.39,4.25-3.36,5.54-5.9c1.3-2.54,1.94-5.45,1.94-8.71c0-3.26-0.67-6.12-2.02-8.57c-1.35-2.45-3.19-4.37-5.54-5.76
		c-2.35-1.39-5.11-2.09-8.28-2.09c-3.07,0-5.81,0.7-8.21,2.09c-2.4,1.39-4.27,3.34-5.62,5.83c-1.34,2.5-2.02,5.38-2.02,8.64
		c0,3.17,0.67,6.03,2.02,8.57c1.34,2.54,3.22,4.51,5.62,5.9C475.18,182.65,477.92,183.34,480.99,183.34z"/>
	<path class="st1" d="M555.72,203.5c-4.13,0-8.19-0.53-12.17-1.58c-3.98-1.05-7.68-2.57-11.09-4.54c-3.41-1.97-6.31-4.25-8.71-6.84
		l12.53-12.67c2.3,2.5,5.04,4.44,8.21,5.83c3.17,1.39,6.62,2.09,10.37,2.09c2.59,0,4.58-0.38,5.98-1.15
		c1.39-0.77,2.09-1.82,2.09-3.17c0-1.73-0.84-3.05-2.52-3.96c-1.68-0.91-3.82-1.73-6.41-2.45c-2.59-0.72-5.33-1.51-8.21-2.38
		s-5.62-2.06-8.21-3.6c-2.59-1.53-4.71-3.67-6.34-6.41c-1.63-2.74-2.45-6.21-2.45-10.44c0-4.51,1.15-8.42,3.46-11.74
		s5.57-5.93,9.79-7.85c4.22-1.92,9.17-2.88,14.83-2.88c5.95,0,11.45,1.03,16.49,3.1c5.04,2.07,9.14,5.11,12.31,9.14l-12.53,12.67
		c-2.21-2.59-4.68-4.41-7.42-5.47c-2.74-1.06-5.4-1.58-7.99-1.58c-2.5,0-4.37,0.36-5.62,1.08c-1.25,0.72-1.87,1.75-1.87,3.1
		c0,1.44,0.81,2.59,2.45,3.46c1.63,0.87,3.74,1.63,6.34,2.3c2.59,0.67,5.33,1.49,8.21,2.45c2.88,0.96,5.62,2.26,8.21,3.89
		c2.59,1.63,4.7,3.82,6.34,6.55c1.63,2.74,2.45,6.31,2.45,10.73c0,6.82-2.57,12.24-7.7,16.27
		C571.4,201.49,564.46,203.5,555.72,203.5z"/>
	<path class="st1" d="M596.19,201.77V97.23h22.03v104.54H596.19z M640.97,201.77l-24.48-36.29l24.34-33.7h24.62l-29.38,37.87
		l0.72-9.07l30.1,41.18H640.97z"/>
	<path class="st1" d="M674.81,201.77V97.23h22.03v104.54H674.81z"/>
	<path class="st1" d="M743.5,203.36c-6.43,0-12.12-1.32-17.06-3.96c-4.95-2.64-8.81-6.29-11.59-10.94
		c-2.79-4.66-4.18-10.01-4.18-16.06v-40.61h22.03v40.32c0,2.4,0.41,4.46,1.22,6.19c0.81,1.73,2.04,3.07,3.67,4.03
		c1.63,0.96,3.6,1.44,5.9,1.44c3.26,0,5.85-1.03,7.78-3.1c1.92-2.06,2.88-4.92,2.88-8.57v-40.32h22.03v40.46
		c0,6.14-1.39,11.54-4.18,16.2c-2.79,4.66-6.62,8.3-11.52,10.94C755.59,202.04,749.93,203.36,743.5,203.36z"/>
	<path class="st1" d="M790.01,201.77V97.23h22.03v51.7l-3.6,16.99l3.31,16.99v18.86H790.01z M830.33,203.21
		c-4.7,0-9.02-0.99-12.96-2.95c-3.94-1.97-7.15-4.61-9.65-7.92c-2.5-3.31-3.94-7.03-4.32-11.16v-29.52
		c0.38-4.13,1.82-7.8,4.32-11.02c2.5-3.22,5.71-5.74,9.65-7.56c3.94-1.82,8.26-2.74,12.96-2.74c6.62,0,12.5,1.58,17.64,4.75
		c5.13,3.17,9.17,7.49,12.1,12.96c2.93,5.47,4.39,11.71,4.39,18.72c0,7.01-1.46,13.25-4.39,18.72c-2.93,5.47-6.96,9.79-12.1,12.96
		C842.83,201.63,836.95,203.21,830.33,203.21z M826.44,183.34c3.07,0,5.78-0.72,8.14-2.16c2.35-1.44,4.2-3.41,5.54-5.9
		c1.34-2.5,2.02-5.33,2.02-8.5c0-3.26-0.67-6.14-2.02-8.64c-1.34-2.5-3.19-4.44-5.54-5.83c-2.35-1.39-5.06-2.09-8.14-2.09
		c-3.07,0-5.81,0.7-8.21,2.09c-2.4,1.39-4.25,3.34-5.54,5.83c-1.3,2.5-1.94,5.38-1.94,8.64c0,3.26,0.67,6.15,2.02,8.64
		c1.34,2.5,3.19,4.44,5.54,5.83C820.65,182.65,823.37,183.34,826.44,183.34z"/>
</g>
</svg>
