<?xml version="1.0" encoding="utf-8"?>
<!-- Generator: Adobe Illustrator 27.4.1, SVG Export Plug-In . SVG Version: 6.00 Build 0)  -->
<svg version="1.1" xmlns="http://www.w3.org/2000/svg" xmlns:xlink="http://www.w3.org/1999/xlink" x="0px" y="0px"
	 viewBox="0 0 1024 1024" style="enable-background:new 0 0 1024 1024;" xml:space="preserve">
<style type="text/css">
	.st0{fill:#464EFF;}
	.st1{fill:#FFFFFF;}
</style>
<g id="레이어_2">
	<path class="st0" d="M924,1024H100C44.77,1024,0,979.23,0,924V100C0,44.77,44.77,0,100,0h824c55.23,0,100,44.77,100,100v824
		C1024,979.23,979.23,1024,924,1024z"/>
</g>
<g id="레이어_1">
	<path class="st1" d="M816.23,488l-276.5-273.71c-12.95-12.82-34.44-10.38-44.19,5.01L206.39,675.97
		c-10.96,17.32-1.19,40.25,18.89,44.33l477.64,97.11c14.11,2.87,28.07-5.51,32.17-19.31l86.25-290.12
		C823.45,500.88,821.48,493.2,816.23,488z M741.12,492.15l-94.36,30.41l-62.97-186.38L741.12,492.15z M511.6,298.37l82.73,243.65
		l-300.87,99.35L511.6,298.37z M338.4,685.93l273.66-91.55l53.82,158.7L338.4,685.93z M706.86,697.98l-45.09-123.07l89.65-27.59
		L706.86,697.98z"/>
</g>
</svg>
