<svg width="217" height="217" viewBox="0 0 217 217" fill="none" xmlns="http://www.w3.org/2000/svg">
<g clip-path="url(#clip0_34_2)">
<path fill-rule="evenodd" clip-rule="evenodd" d="M164.383 132.329L126.2 94.1457L61.1457 159.2C50.6015 169.744 50.6015 186.839 61.1457 197.383C71.6899 207.927 88.7853 207.927 99.3295 197.383L164.383 132.329Z" fill="url(#paint0_linear_34_2)"/>
<g filter="url(#filter0_d_34_2)">
<path fill-rule="evenodd" clip-rule="evenodd" d="M126.919 133.024C137.508 142.868 154.076 142.637 164.383 132.329C174.691 122.022 174.922 105.454 165.078 94.8657L165.09 94.8528L164.383 94.1457L145.291 75.0538L126.2 94.1457L107.108 113.238L126.2 132.329L126.907 133.037L126.919 133.024Z" fill="black"/>
</g>
<path d="M112.057 41.8198L165.09 94.8528L165.078 94.8657C174.922 105.454 174.691 122.022 164.383 132.329C154.076 142.637 137.508 142.868 126.919 133.024L126.907 133.037L48.4178 54.5477C44.9031 51.033 44.9031 45.3345 48.4178 41.8198C51.9325 38.3051 57.631 38.3051 61.1457 41.8198L94.3797 75.0538C97.8944 78.5685 103.593 78.5685 107.108 75.0538C110.622 71.5391 110.622 65.8406 107.108 62.3259L99.3295 54.5477C95.8148 51.033 95.8148 45.3345 99.3295 41.8198C102.844 38.3051 108.543 38.3051 112.057 41.8198Z" fill="url(#paint1_linear_34_2)"/>
<path d="M86.6015 29.0919C83.0868 32.6066 77.3883 32.6066 73.8736 29.0919C70.3589 25.5772 70.3589 19.8787 73.8736 16.364C77.3883 12.8492 83.0868 12.8492 86.6015 16.364C90.1163 19.8787 90.1163 25.5772 86.6015 29.0919Z" fill="url(#paint2_linear_34_2)"/>
</g>
<defs>
<filter id="filter0_d_34_2" x="103.108" y="74.0538" width="73.1838" height="73.1838" filterUnits="userSpaceOnUse" color-interpolation-filters="sRGB">
<feFlood flood-opacity="0" result="BackgroundImageFix"/>
<feColorMatrix in="SourceAlpha" type="matrix" values="0 0 0 0 0 0 0 0 0 0 0 0 0 0 0 0 0 0 127 0" result="hardAlpha"/>
<feOffset dy="3"/>
<feGaussianBlur stdDeviation="2"/>
<feComposite in2="hardAlpha" operator="out"/>
<feColorMatrix type="matrix" values="0 0 0 0 0 0 0 0 0 0 0 0 0 0 0 0 0 0 0.05 0"/>
<feBlend mode="normal" in2="BackgroundImageFix" result="effect1_dropShadow_34_2"/>
<feBlend mode="normal" in="SourceGraphic" in2="effect1_dropShadow_34_2" result="shape"/>
</filter>
<linearGradient id="paint0_linear_34_2" x1="61.1457" y1="197.383" x2="145.291" y2="113.238" gradientUnits="userSpaceOnUse">
<stop stop-color="#0040FF"/>
<stop offset="1" stop-color="#0029A3"/>
</linearGradient>
<linearGradient id="paint1_linear_34_2" x1="61.1457" y1="29.0919" x2="164.383" y2="132.329" gradientUnits="userSpaceOnUse">
<stop stop-color="#98B1FF"/>
<stop offset="1" stop-color="#0040FF"/>
</linearGradient>
<linearGradient id="paint2_linear_34_2" x1="61.1457" y1="29.0919" x2="164.383" y2="132.329" gradientUnits="userSpaceOnUse">
<stop stop-color="#98B1FF"/>
<stop offset="1" stop-color="#0040FF"/>
</linearGradient>
<clipPath id="clip0_34_2">
<rect width="217" height="217" fill="white"/>
</clipPath>
</defs>
</svg>
