<?xml version="1.0" encoding="utf-8"?>
<!-- Generator: Adobe Illustrator 27.4.1, SVG Export Plug-In . SVG Version: 6.00 Build 0)  -->
<svg version="1.1" xmlns="http://www.w3.org/2000/svg" xmlns:xlink="http://www.w3.org/1999/xlink" x="0px" y="0px"
	 viewBox="0 0 1024 1024" style="enable-background:new 0 0 1024 1024;" xml:space="preserve">
<style type="text/css">
	.st0{fill:#333333;}
</style>
<g id="레이어_1">
	<path class="st0" d="M955.99,476.97L552.47,77.52c-18.9-18.71-50.26-15.15-64.49,7.32l-422,666.46c-16,25.27-1.74,58.74,27.57,64.7
		l697.07,141.73c20.59,4.19,40.97-8.05,46.95-28.18l125.88-423.41C966.54,495.77,963.67,484.57,955.99,476.97z M846.38,483.03
		l-137.71,44.39l-91.9-272L846.38,483.03z M511.42,200.23l120.74,355.58l-439.1,145L511.42,200.23z M258.64,765.84l399.39-133.61
		l78.55,231.61L258.64,765.84z M796.38,783.42l-65.81-179.61l130.84-40.26L796.38,783.42z"/>
</g>
<g id="레이어_2">
</g>
</svg>
