<?xml version="1.0" encoding="utf-8"?>
<!-- Generator: Adobe Illustrator 27.4.1, SVG Export Plug-In . SVG Version: 6.00 Build 0)  -->
<svg version="1.1" id="레이어_1" xmlns="http://www.w3.org/2000/svg" xmlns:xlink="http://www.w3.org/1999/xlink" x="0px"
	 y="0px" viewBox="0 0 1000 300" style="enable-background:new 0 0 1000 300;" xml:space="preserve">
<style type="text/css">
	.st0{fill:#464EFF;}
</style>
<path class="st0" d="M276.71,140.94L172.33,37.61c-4.89-4.84-13-3.92-16.68,1.89L46.49,211.9c-4.14,6.54-0.45,15.19,7.13,16.74
	l180.32,36.66c5.33,1.08,10.6-2.08,12.15-7.29l32.56-109.53C279.44,145.8,278.7,142.9,276.71,140.94z M248.36,142.51l-35.62,11.48
	l-23.77-70.36L248.36,142.51z M161.71,69.35l31.23,91.98L79.36,198.84L161.71,69.35z M96.33,215.66l103.31-34.56l20.32,59.91
	L96.33,215.66z M235.43,220.21l-17.02-46.46l33.84-10.41L235.43,220.21z"/>
<g>
	<polygon class="st0" points="410.49,99.74 382.56,99.74 344.97,145.6 344.97,99.74 322.37,99.74 322.37,201.41 344.97,201.41 
		344.97,151.38 383.85,201.41 411.93,201.41 369.36,148.13 	"/>
	<rect x="421.87" y="131.42" class="st0" width="22.03" height="69.98"/>
	<path class="st0" d="M432.96,97.58c-3.46,0-6.31,1.15-8.57,3.46c-2.26,2.3-3.38,5.18-3.38,8.64c0,3.36,1.13,6.22,3.38,8.57
		c2.25,2.35,5.11,3.53,8.57,3.53c3.46,0,6.29-1.17,8.5-3.53c2.21-2.35,3.31-5.21,3.31-8.57c0-3.46-1.1-6.34-3.31-8.64
		C439.24,98.74,436.41,97.58,432.96,97.58z"/>
	<path class="st0" d="M512.73,134.59c-5.76-3.17-12.29-4.75-19.58-4.75c-7.3,0-13.82,1.61-19.58,4.82
		c-5.76,3.22-10.32,7.56-13.68,13.03c-3.36,5.47-5.04,11.66-5.04,18.58s1.68,13.15,5.04,18.72c3.36,5.57,7.94,9.96,13.75,13.18
		c5.81,3.22,12.31,4.82,19.51,4.82c7.29,0,13.82-1.61,19.58-4.82c5.76-3.21,10.32-7.61,13.68-13.18c3.36-5.57,5.04-11.81,5.04-18.72
		s-1.68-13.13-5.04-18.65C523.05,142.1,518.49,137.76,512.73,134.59z M507.04,174.98c-1.3,2.54-3.15,4.51-5.54,5.9
		c-2.4,1.39-5.18,2.09-8.35,2.09c-3.07,0-5.81-0.7-8.21-2.09c-2.4-1.39-4.27-3.36-5.62-5.9c-1.35-2.54-2.02-5.4-2.02-8.57
		c0-3.26,0.67-6.14,2.02-8.64c1.34-2.5,3.21-4.44,5.62-5.83c2.4-1.39,5.13-2.09,8.21-2.09c3.17,0,5.93,0.7,8.28,2.09
		c2.35,1.39,4.2,3.31,5.54,5.76c1.34,2.45,2.02,5.31,2.02,8.57C508.99,169.54,508.34,172.44,507.04,174.98z"/>
	<path class="st0" d="M564.28,148.34c1.25-0.72,3.12-1.08,5.62-1.08c2.59,0,5.26,0.53,7.99,1.58c2.74,1.06,5.21,2.88,7.42,5.47
		l12.53-12.67c-3.17-4.03-7.27-7.08-12.31-9.14c-5.04-2.06-10.54-3.1-16.49-3.1c-5.67,0-10.61,0.96-14.83,2.88
		c-4.23,1.92-7.49,4.54-9.79,7.85s-3.46,7.22-3.46,11.74c0,4.23,0.81,7.7,2.45,10.44c1.63,2.74,3.74,4.87,6.34,6.41
		c2.59,1.54,5.33,2.74,8.21,3.6s5.62,1.66,8.21,2.38c2.59,0.72,4.73,1.54,6.41,2.45c1.68,0.91,2.52,2.23,2.52,3.96
		c0,1.35-0.7,2.4-2.09,3.17c-1.39,0.77-3.38,1.15-5.98,1.15c-3.74,0-7.2-0.7-10.37-2.09c-3.17-1.39-5.9-3.34-8.21-5.83l-12.53,12.67
		c2.4,2.59,5.3,4.87,8.71,6.84c3.41,1.97,7.1,3.48,11.09,4.54c3.98,1.06,8.04,1.58,12.17,1.58c8.73,0,15.67-2.02,20.81-6.05
		c5.13-4.03,7.7-9.46,7.7-16.27c0-4.42-0.82-7.99-2.45-10.73c-1.63-2.74-3.74-4.92-6.34-6.55c-2.59-1.63-5.33-2.93-8.21-3.89
		c-2.88-0.96-5.62-1.78-8.21-2.45c-2.59-0.67-4.71-1.44-6.34-2.3c-1.63-0.86-2.45-2.02-2.45-3.46
		C562.41,150.1,563.03,149.06,564.28,148.34z"/>
	<polygon class="st0" points="677.61,131.42 652.98,131.42 630.37,162.73 630.37,96.86 608.34,96.86 608.34,201.41 630.37,201.41 
		630.37,167.68 653.13,201.41 679.05,201.41 652.02,164.42 	"/>
	<rect x="686.97" y="96.86" class="st0" width="22.03" height="104.54"/>
	<path class="st0" d="M777.83,134.59c-5.76-3.17-12.29-4.75-19.58-4.75c-7.3,0-13.82,1.61-19.58,4.82
		c-5.76,3.22-10.32,7.56-13.68,13.03c-3.36,5.47-5.04,11.66-5.04,18.58s1.68,13.15,5.04,18.72c3.36,5.57,7.94,9.96,13.75,13.18
		c5.81,3.22,12.31,4.82,19.51,4.82c7.29,0,13.82-1.61,19.58-4.82c5.76-3.21,10.32-7.61,13.68-13.18c3.36-5.57,5.04-11.81,5.04-18.72
		s-1.68-13.13-5.04-18.65C788.15,142.1,783.59,137.76,777.83,134.59z M772.14,174.98c-1.3,2.54-3.15,4.51-5.54,5.9
		c-2.4,1.39-5.18,2.09-8.35,2.09c-3.07,0-5.81-0.7-8.21-2.09c-2.4-1.39-4.27-3.36-5.62-5.9c-1.35-2.54-2.02-5.4-2.02-8.57
		c0-3.26,0.67-6.14,2.02-8.64c1.34-2.5,3.21-4.44,5.62-5.83c2.4-1.39,5.13-2.09,8.21-2.09c3.17,0,5.93,0.7,8.28,2.09
		c2.35,1.39,4.2,3.31,5.54,5.76c1.34,2.45,2.02,5.31,2.02,8.57C774.08,169.54,773.44,172.44,772.14,174.98z"/>
	<path class="st0" d="M849.25,171.74c0,3.65-0.96,6.5-2.88,8.57c-1.92,2.07-4.51,3.1-7.78,3.1c-2.3,0-4.27-0.48-5.9-1.44
		c-1.63-0.96-2.86-2.3-3.67-4.03c-0.82-1.73-1.22-3.79-1.22-6.19v-40.32h-22.03v40.61c0,6.05,1.39,11.4,4.18,16.06
		c2.78,4.66,6.65,8.3,11.59,10.94c4.94,2.64,10.63,3.96,17.06,3.96c6.43,0,12.1-1.32,16.99-3.96c4.9-2.64,8.73-6.29,11.52-10.94
		c2.78-4.66,4.18-10.06,4.18-16.2v-40.46h-22.03V171.74z"/>
	<path class="st0" d="M933.2,96.86v39.06c-1.59-1.24-3.34-2.31-5.26-3.21c-3.89-1.82-8.23-2.74-13.03-2.74
		c-6.62,0-12.51,1.58-17.64,4.75c-5.14,3.17-9.17,7.49-12.1,12.96c-2.93,5.47-4.39,11.71-4.39,18.72c0,7.01,1.46,13.25,4.39,18.72
		c2.93,5.47,6.96,9.79,12.1,12.96c5.13,3.17,11.02,4.75,17.64,4.75c4.8,0,9.17-0.99,13.1-2.95c2.07-1.04,3.94-2.26,5.62-3.67v5.19
		h21.6V96.86H933.2z M927.01,180.89c-2.3,1.39-5.04,2.09-8.21,2.09c-2.98,0-5.67-0.72-8.06-2.16c-2.4-1.44-4.27-3.41-5.62-5.9
		c-1.35-2.5-2.02-5.33-2.02-8.5s0.7-6,2.09-8.5c1.39-2.5,3.26-4.46,5.62-5.9c2.35-1.44,5.06-2.16,8.14-2.16
		c3.07,0,5.78,0.72,8.14,2.16c2.35,1.44,4.18,3.38,5.47,5.83c1.3,2.45,1.94,5.3,1.94,8.57c0,3.26-0.67,6.15-2.02,8.64
		C931.13,177.55,929.31,179.5,927.01,180.89z"/>
</g>
</svg>
